<?xml version="1.0" encoding="utf-8"?>
<!-- Generator: Adobe Illustrator 21.0.0, SVG Export Plug-In . SVG Version: 6.00 Build 0)  -->
<svg version="1.2" baseProfile="tiny" id="Layer_1" xmlns="http://www.w3.org/2000/svg" xmlns:xlink="http://www.w3.org/1999/xlink"
	 x="0px" y="0px" viewBox="0 0 168 274" xml:space="preserve">
<path fill="#FFFFFF" d="M61.8,140.3c17.4,17.5,33.7,33.9,50,50.3c13.2,13.2,26.4,26.3,39.6,39.5c9.5,9.5,10,22.3,1.4,31.2
	c-8.8,9-21.8,8.6-31.5-1.1C87.2,226,53.1,191.9,18.9,157.7C8.1,146.9,8,134.9,18.9,124.1C53.2,89.7,87.7,55.3,122,20.8
	c5.8-5.8,12.4-9.1,20.6-7.5c16.1,3.1,22.8,21.9,12.3,34.6c-1.4,1.7-2.9,3.2-4.5,4.7c-27.9,27.9-55.8,55.8-83.8,83.7
	C65.3,137.8,63.6,138.9,61.8,140.3z"/>
</svg>
