<?xml version="1.0" encoding="utf-8"?>
<!-- Generator: Adobe Illustrator 21.0.0, SVG Export Plug-In . SVG Version: 6.00 Build 0)  -->
<svg version="1.2" baseProfile="tiny" id="Layer_1" xmlns="http://www.w3.org/2000/svg" xmlns:xlink="http://www.w3.org/1999/xlink"
	 x="0px" y="0px" viewBox="0 0 893 318" xml:space="preserve">
<g>
	<path fill="#FFFFFF" d="M245.8,150.5c1.5-1.3,3.3-2.5,4.5-4c15.4-21.4,36.8-27.1,61.7-23.3c14.8,2.3,26.6,9.2,33.9,22.7
		c4.8,8.9,5.9,18.8,6.1,28.6c0.5,26,0.3,52,0.5,78c0,5.2,0.1,10.3,0.2,15.5c0.1,2.7-1,3.8-3.8,3.8c-14-0.1-28-0.1-42,0
		c-3.3,0-4.3-1.3-4.3-4.5c0.2-21.3,0.3-42.7,0.2-64c-0.1-7.8-0.7-15.6-1.8-23.4c-2.4-18.4-17.6-23.4-33.2-18.8
		c-10.6,3.1-16.6,11.3-18.4,21.7c-1.8,9.9-2.7,20.1-3,30.2c-0.5,17.8-0.3,35.7,0,53.5c0.1,4.3-1.3,5.4-5.4,5.3
		c-12.8-0.2-25.7-0.2-38.5,0c-3.8,0.1-5.3-0.8-5.3-4.9c0.1-70.8,0.1-141.7,0-212.5c0-3.6,1-5.1,4.8-5.1c13.2,0.1,26.3,0.1,39.5,0
		c3.1,0,4.9,0.7,4.9,4.4c-0.2,27.2-0.2,54.3-0.4,81.5c0,4.9-0.8,9.7-1.2,14.6C245,150.1,245.4,150.3,245.8,150.5z"/>
	<path fill="#FFFFFF" d="M841.9,128.4c-9.7,10.3-18.7,19.9-27.7,29.5c-10.8,11.5-21.6,23.2-32.5,34.6c-3.2,3.4-2.7,5.7,0.3,8.8
		c21.2,22.1,42.3,44.4,63.5,66.6c0.8,0.8,1.3,1.8,2.4,3.3c-1.9,0.3-3.1,0.6-4.3,0.6c-19,0-38,0.1-57-0.1c-2,0-4.5-1.3-5.8-2.8
		c-16.5-19.2-32.8-38.6-49.2-57.9c-0.8-1-2.3-1.4-3.5-2.1c-0.5,1.5-1.4,3-1.4,4.5c-0.1,17.7-0.1,35.3,0.1,53c0,4-0.9,5.5-5.2,5.5
		c-14.3-0.3-28.6-0.1-43.3-0.1c-0.2-1.5-0.6-2.7-0.6-4c0-71.3,0-142.6-0.1-213.9c0-3.3,1-4.5,4.2-4.4c13.5,0.1,27,0.1,40.5,0
		c4.1,0,4.5,2,4.5,5.3c-0.1,42.3-0.1,84.6-0.1,127c0,0.7-0.2,1.4,0,2c0.4,1.5,1,3,1.5,4.5c1.3-0.9,2.9-1.5,3.8-2.6
		c15.3-18,30.5-36.2,45.9-54.1c1.5-1.8,4.3-3.5,6.6-3.5c17.8-0.3,35.7-0.2,53.5-0.1C838.9,127.6,839.8,128,841.9,128.4z"/>
	<path fill="#FFFFFF" d="M66.2,191c0-24.7,0-49.3,0-74c0-7.6,0-7.7-7.9-7.7c-11.7,0-23.3,0-35,0.2c-3.7,0.1-5.2-1-5.1-5.1
		c0.3-12.8,0.3-25.7,0-38.5c-0.1-4.2,1.3-5.4,5.4-5.4c24.7,0.1,49.3,0.1,74,0.1c22,0,44,0.1,66-0.1c5-0.1,6.6,1.4,6.5,6.5
		c-0.4,12.3-0.3,24.7,0,37c0.1,4.2-1.3,5.5-5.4,5.5c-11.7-0.2-23.3-0.1-35-0.1c-6.3,0-6.8,0.5-6.8,6.8c0,49.6-0.1,99.3,0.1,148.9
		c0,4.8-1,6.8-6.3,6.6c-15-0.3-30-0.3-45,0c-4.1,0.1-5.4-1.1-5.4-5.3C66.3,241.3,66.2,216.2,66.2,191C66.2,191,66.2,191,66.2,191z"
		/>
	<path fill="#FFFFFF" d="M484.8,199.3c0-22,0.1-44-0.1-66c0-4.3,1.2-5.9,5.6-5.8c11.3,0.2,22.7,0.2,34,0c4.2-0.1,6.1,1.1,5.8,5.7
		c-0.4,5-0.2,10,0,15c0.1,1.5,1,2.9,1.5,4.4c1.4-1,3.2-1.7,4-3c7-10.3,15.5-18.7,27.3-23.2c11.4-4.4,23.2-5.5,35.3-3.5
		c9,1.5,17.5,4.1,24.6,10.1c8.3,6.9,13.9,15.5,14.8,26.3c1.2,15.2,2,30.5,2.3,45.8c0.4,20.5,0,41,0.2,61.5c0,4.3-1.5,5.3-5.5,5.3
		c-13-0.2-26-0.2-39,0c-4.4,0.1-5.7-1.2-5.7-5.7c0.2-22.7,0.3-45.3,0-68c-0.1-7.1-0.5-14.4-2.1-21.3c-3.9-16-16.9-19.9-32.3-15.9
		c-10.6,2.8-16.8,10.9-18.7,21.4c-1.8,10.1-2.8,20.4-3.1,30.7c-0.5,17.8-0.3,35.6,0,53.5c0.1,4.3-1.3,5.4-5.4,5.3
		c-12.8-0.2-25.7-0.3-38.5,0c-4.3,0.1-5.3-1.4-5.3-5.5C484.9,244,484.8,221.7,484.8,199.3z"/>
	<path fill="#FFFFFF" d="M437.6,145.4c-16.7-8.5-31.9-5.9-47,3.7c-0.3-2.1-0.6-3.3-0.6-4.6c0-9.7,0.1-19.3-0.1-29
		c-0.1-3.5,1.1-4.8,4.6-4.7c6.2,0.1,12.4,0.3,18.5-0.4c9.5-1.1,18.1-4.3,23-13.6c5-9.4,3.1-23-4.4-30.7c-7.5-7.7-18.8-9.7-28.4-3.9
		c-3.9,2.4-7.2,6.9-9.2,11.1c-3.4,7.2-2.9,7.4-11,7.4c-10.5,0-21,0-31.5,0c-6.6,0-7.1-0.4-6.6-7.2c1.8-21.9,13.5-37.2,32.9-46.5
		c14.9-7.2,31.1-10.6,47.5-8.4c27.7,3.6,55.8,18.7,58.8,57.8c1.1,14.5,0,28.6-8,41.4c-7,11.1-16.5,18.6-29.9,20.3
		C442.1,138.6,438.4,139.4,437.6,145.4z"/>
	<path fill="#FFFFFF" d="M444.2,216.3c0.2,2.3,0.4,3.7,0.4,5.2c0,15-0.1,30,0.1,45c0.1,4.2-1.2,5.5-5.4,5.4c-13.7-0.2-27.3-0.2-41,0
		c-4,0.1-5.6-0.8-5.5-5.2c0.3-14,0.1-28,0.1-42c0-1.6,0.2-3.2,0.3-5.9C410.7,227.4,427.3,227.5,444.2,216.3z"/>
	<path fill="#FFFFFF" d="M417.2,206.9c-13,0-24.1-11.1-24.1-24.4c-0.1-12.9,11.3-24.3,24.3-24.3c12.9,0,24.3,11.2,24.4,24.2
		C441.9,195.7,430.6,206.9,417.2,206.9z"/>
</g>
</svg>
